<svg width="73" height="50" viewBox="0 0 73 50" fill="none" xmlns="http://www.w3.org/2000/svg">
<path d="M0.153076 48.4144V1.28038H14.6558C18.7995 1.28038 22.5007 2.21917 25.7595 4.09676C29.0399 5.95277 31.5973 8.6073 33.4317 12.0603C35.2662 15.4918 36.1834 19.398 36.1834 23.7791V25.948C36.1834 30.3291 35.277 34.2245 33.4641 37.6344C31.6728 41.0443 29.137 43.688 25.8566 45.5656C22.5762 47.4432 18.875 48.3928 14.753 48.4144H0.153076ZM9.86475 9.14683V40.6126H14.5587C18.3571 40.6126 21.2598 39.3717 23.2669 36.8898C25.2739 34.408 26.2991 30.8578 26.3422 26.2394V23.7467C26.3422 18.9556 25.3495 15.3299 23.364 12.8696C21.3785 10.3878 18.4758 9.14683 14.6558 9.14683H9.86475Z" fill="#8615DF"/>
<path d="M72.0453 25.9157C72.0453 30.5557 71.2252 34.6238 69.5851 38.12C67.9449 41.6162 65.5925 44.3139 62.5279 46.213C59.4849 48.1122 55.9887 49.0618 52.0393 49.0618C48.133 49.0618 44.6476 48.123 41.5831 46.2454C38.5185 44.3678 36.1445 41.6917 34.4612 38.2171C32.7778 34.7209 31.9253 30.7067 31.9038 26.1746V23.8438C31.9038 19.2038 32.7347 15.1249 34.3964 11.6071C36.0798 8.06776 38.443 5.35928 41.486 3.48169C44.5505 1.58252 48.0467 0.632935 51.9746 0.632935C55.9024 0.632935 59.3878 1.58252 62.4308 3.48169C65.4954 5.35928 67.8585 8.06776 69.5203 11.6071C71.2037 15.1249 72.0453 19.193 72.0453 23.8115V25.9157ZM62.2042 23.7791C62.2042 18.8369 61.3193 15.0817 59.5497 12.5135C57.78 9.94535 55.2549 8.66125 51.9746 8.66125C48.7157 8.66125 46.2015 9.93456 44.4318 12.4812C42.6621 15.0062 41.7665 18.7182 41.7449 23.6172V25.9157C41.7449 30.7283 42.6298 34.4619 44.3994 37.1164C46.1691 39.771 48.7157 41.0982 52.0393 41.0982C55.2981 41.0982 57.8016 39.8249 59.5497 37.2783C61.2978 34.7101 62.1826 30.9765 62.2042 26.0775V23.7791Z" fill="#8615DF"/>
</svg>
